<?xml version="1.0" encoding="utf-8"?>
<!-- Generator: Adobe Adobe Illustrator 24.2.0, SVG Export Plug-In . SVG Version: 6.00 Build 0)  -->
<svg version="1.1" id="Layer_1" xmlns="http://www.w3.org/2000/svg" xmlns:xlink="http://www.w3.org/1999/xlink" x="0px" y="0px"
	 width="400px" height="560px" viewBox="0 0 400 560" style="enable-background:new 0 0 400 560;" xml:space="preserve">
<style type="text/css">
	.st0{fill:#01540E;}
	.st1{opacity:0.851;}
	.st2{fill:#8E908E;}
	.st3{fill:#94A396;}
	.st4{fill:#94AC97;}
	.st5{fill:#ACC0B0;}
	.st6{fill:#B4D6B8;}
	.st7{fill:#CCFCFE;}
	.st8{fill:none;stroke:#000000;stroke-width:5;stroke-miterlimit:10;}
	.st9{fill:#F3F2E9;}
	.st10{fill:none;}
	.st11{font-family:'AreaNormal-ExtraBold';}
	.st12{font-size:35.1626px;}
	.st13{font-size:20.9753px;}
	.st14{font-size:16.4126px;}
	.st15{fill:#FFE100;stroke:#000000;stroke-miterlimit:10;}
	.st16{font-size:21.5592px;}
	.st17{fill:#E30206;}
	.st18{fill:#453B32;stroke:#000000;stroke-width:2;stroke-miterlimit:10;}
	.st19{fill:#7D8C7E;stroke:#FFFFFF;stroke-width:2;stroke-miterlimit:10;}
	.st20{fill:#3F660C;}
	.st21{fill:#498200;}
	.st22{fill:#170F05;}
	.st23{fill:#4C4C4E;}
	.st24{fill:#D1CCD2;}
	.st25{fill:#433E42;}
	.st26{fill:#D4CFD5;}
	.st27{fill:#2D282C;}
	.st28{fill:#141412;}
	.st29{fill:#E3E2E8;}
	.st30{fill:#6B6863;}
	.st31{fill:#676975;}
	.st32{fill:#4C4044;}
	.st33{fill:#221912;}
	.st34{fill:#375411;}
	.st35{fill:#274007;}
	.st36{fill:#FFFFFF;}
	.st37{fill:#617548;}
	.st38{fill:#FFFFFF;stroke:#000000;stroke-width:0.1;stroke-miterlimit:10;}
	.st39{fill:#FFFFFF;stroke:#000000;stroke-width:5;stroke-miterlimit:10;}
	.st40{opacity:0.3412;fill:#AFDCFA;stroke:#000000;stroke-width:2;stroke-miterlimit:10;}
	.st41{opacity:0.3412;}
	.st42{fill:#D40000;}
</style>
<rect width="400" height="560"/>
<path class="st0" d="M20,523.73V36.27c0-5.62,4.55-10.17,10.17-10.17h339.66c5.62,0,10.17,4.55,10.17,10.17v487.45
	c0,5.62-4.55,10.17-10.17,10.17H30.17C24.55,533.9,20,529.34,20,523.73z"/>
<g class="st1">
	<path class="st2" d="M42.07,202.68V73.77c4.97,0.22,33.47-0.58,31.69,0.82c-1.45,2.92-5.79,9.12-3.71,12.18
		c0.71,0.82,1.26,11.48,1.15,23.49c0.68,10.76-3.19,28.45-0.44,35.14c1.29,2.42,3.16,10.39,0.77,11.89
		c-2.14,1.55-0.34,3.15,1.47,3.59c6.04,1.12-4.65,7.62-2.79,10.48c0.6,3.65,1.69,4.36,7.43,4.71c4.32,0.24,5.14,0.18,5.68-0.71
		c0.76-1.06,0.27-4.71-0.76-5.83c-0.6-0.65-3.88,0.53-3.88,1.41c-2.36,1.43-3.73,0.34-1.58-4.77c1.47-4.12,1.91-4.71,3.82-4.71
		c7.46,0.94-0.3-33.51,6.17-43.73c3.77-7.43-3.61-8.59-3.5-15.19c0.68-7.22,2.71-13.51-0.82-21.54c-1.12-3.08-1.47-4.88-1.37-7.24
		c7.01,0.05,21.13,0.19,28.14,0.29c0.04,4.58,0.18,11.91,0.44,16.48l0.55-2.77c0.66-3.3,1.2-3.47,5.3-1.53
		c2.02,0.94,2.73,1.59,2.73,2.53c-0.05,1.34,2.07,3.44,3.17,4.47c1.45-3.31,0.73-6.47,2.4-9.89c2.19-3.53-0.72-6.08-0.11-9.59
		c6.48,0,19.53,0,26.01,0c1.11,2.68,1.89,6.76,0.55,8.59c-1.42,2.12-2.02,23.49-0.87,28.78c1.32,6.48-3.31,13.2,0.06,19.54
		c1.15,3.3,1.2,3.83,0.55,5.59c-4.45,8.72,1.21,14.5-1.91,21.43c-1.2,3.18-1.37,4.24-0.93,5.77c0.65,2.05,0.93,8.44,2.08,10.3
		c0.98,1.65,0.55,6.24-0.71,7c-0.71,0.41-0.71,0.82,0.05,3.12c0.49,1.47,1.09,6.36,1.42,11.36l0.55,8.77
		c-1.04,2.39-3.43,6.38-2.19,8.3c1.2,2.75-1.92,9.69,0.6,11.07c0.49,0.18,0.49,1.06-0.11,3.59c-1.24,3.87,0.66,8.48,2.57,11.42
		c3.18,3.35-1.2,3.12-0.11,7c0.57,4.6-4.84,12.56,3.61,11.95c4.32,0,6.06-0.35,6.61-1.29c0.35-3.13,1.74-25.98,1.09-34.97
		c-0.88-4.65-0.79-7.93-0.82-11.95c-0.22-7.42,0.22-12.36,1.2-14.24c1.96-2.73-1.14-8.05-0.33-11.48
		c-0.36-5.14-1.28-39.01-1.8-44.79c-0.6-3.06-0.33-16.3,0.44-21.25c0.44-2.94,0.33-3.47-1.09-6.3c-3.49-6.39,0.51-5.95,0.05-12.13
		c0.78-7.93,0.09-19.76,1.2-25.19c26.68,0,80.36,0,107.03,0c0.54,5.54-3.77,15.7-1.58,19.13c1.53,5.42,1.69,7.48,1.04,13.71
		c-0.88,5.45,0.09,18.51,0.55,25.96c-2.19,5.65-4.24,15.13-6.5,19.13c-0.66,0.82-0.55,0.94,0.38,0.94c1.15,0,4.48,5,4.48,6.71
		c0,0.47,0.27,0.94,0.6,1.06c1.12,1.46,0.86,11.75,1.37,13.77c0.69,5.05-2.14,8.03-0.49,13.48c3.27,17.1-3.49,14.21-0.66,19.72
		c1.94,3.39-0.37,10.05,0.33,13.83c0.8,4.91-2.51,10.38-0.65,16.3c1.2,5.83,3.33,19.13,3.33,20.66c0,0.88-0.55,2.77-1.2,4.12
		c-2,3.45-1.13,13.65-0.55,18.07c1.15,7.59,1.42,12.07,0.71,13.42c-0.95,1.31,0.5,3.58,1.2,5.06c4.56-2.57,1.16-20.65,3.33-24.19
		c1.2-2.59,0.62-3.61,1.69-6.3c1.92-2.75-2.76-7.38-1.64-10.42c0.44-2.53,2.4-4.65,4.43-4.65c1.42,0,2.13-2.3,1.58-5.42
		c0.05-5.57,2-5.94,1.69-14.6c0,0,0.16-9.12,0.16-9.12c1.71-11.09-10.06-21.7,0.93-22.96c2,0.17,3.05-4.05,0.93-3.83
		c-3.92-0.38-4.79-3.37-3.39-8.24c0.87-1.87,0.62-14.98,1.42-16.78c2.55-16.59-2.77-76.79-0.16-98.59c6.35,0,19.12,0,25.46,0
		c-0.32,4.03,1.88,4.63,0.27,9.54c-0.87,3.3-0.87,4.24-0.27,8.53c0.55,3.83,0.6,5.53,0.05,8.01c-1.01,5.28,0.61,10.7-0.87,16.54
		c-0.93,4.77-0.93,5.18-0.05,8.65c1.24,13.71,1.56,30.66,2.3,46.09c1.19,4.88-2.4,9-0.71,12.36c0.49,0.82,0.93,2.59,0.93,3.88
		c0,7.01-2.75,7.35-1.97,14.42c0.27,3.77,0.16,5.59-0.49,7.65c-1.65,6.05-0.39,13.37,1.97,18.78c1.26,1.71,6.39,4.59,6.83,3.77
		c0.16-0.24,0.33-2.83,0.38-5.65c-0.17-5.94,1.48-5.98,2.02-10.12c0-0.94,0.22-1.77,0.55-1.77c0.93,0,2.24-3.59,2.35-6.36
		c-1.95-10.13-0.06-19.03-0.49-31.02c-0.8-21.14-0.27-77.06,1.37-85.64c1.56-3.41-0.65-8.62-2.73-10.89
		c-0.79-1.23-0.4-2.78-1.86-4.3c-0.76-1-1.37-1.94-1.37-2.12c1.72-0.38,34.54-0.4,42.07-0.35c0,11.88,0,35.8,0,47.68
		c-2.12,0.43-4.66-1.54-6.5-2.94c-0.79,1.25-3.57,4.24-2.95,5.3c0.55,1.29,1.09,13.77,0.6,14.01c-0.65,1.63-0.31,10.57-1.2,12.48
		c-0.53,2.89-2.37,8.71-0.22,10.95c6.86,7.29-4.7,18.62,0.38,26.61c1.15,2.47,1.2,2.65,0.33,5.71c-0.93,3.65-0.71,5.42,1.2,8.42
		c1.46,3.28,2.15,5.88,2.9,9.24c-0.82,2.77,3.65,1.28,5.46,1.35c0,4.68,0,14.1,0,18.78c-2.02,1.53-5.99,1.21-7.65-0.71
		c-0.49-0.82-3.24-1.6-2.29,0.18c2.44,5.23-1.13,12.7,0.66,18.95c0.44,3.06,0.44,4.12-0.22,5.59c-1.48,3.41-1.04,23.9,0.6,26.61
		c1.04,1.65,2.02,1.71,4.81,0.18c4.15-2.3,4.1-2.41,4.1,8.48v9.65c-9.08,1.38-3.75,6.89-9.51,13.01c-5.97,6.8,2.74,12.02,9.51,12.01
		c0,1.57,0,4.73,0,6.3h-18.03c-15.3,0-18.03-0.12-18.03-0.82c0.1-1.85,3.62-8.4,2.29-10.24c0,0-2.68-10.77-2.68-10.77
		c-0.22-1.35-0.66-1.65-2.79-2c-6.88-1.18-7.48-0.82-9.4,5.24c-2.27,4.7,0.19,13.13-1.09,18.6c-36.48,0-109.89,0-146.36,0
		c1.15-10.15,2.54-19.05,2.79-35.08c0-0.71-0.49-1.82-1.15-2.53c-1.85-1.39-1.08-8.46-0.49-10.54c1.35-3.16-2.31-5.82-1.75-9.48
		c0-3.59-1.04-4.53-3.72-3.47c-2.57,1.73-5.82-4.91-7.92-1.41c-1.2,1.41-1.15,1.77,0.22,5.06c2.03,3.96-0.78,7.18,0.82,11.3
		c1.91,7.74-1.95,11.86-2.62,19.48c1.17,3.63,8.32,19.02,3.44,19.78c-2.57-0.4-0.97,4.9-0.98,6.89c-27,0-81.34,0-108.34,0V202.68z
		 M80.31,323.05c3.24-4.48-0.23-10.43,5.03-14.54c1.63-2.22-0.65-4.62-0.11-8.48c0-3.71-0.22-4.77-1.48-6.89
		c-2.14-2.46-0.54-7.5-2.9-9.24c-1.67-1.53-2.15-0.71-3.55-2.35c-0.93-1.12-0.98-1.12-2.51,1.53c-3.82,6.48,0.99,8.82-1.48,17.42
		c-2.08,10.89-2.08,11.83-0.22,14.07C77,318.41,76.3,331.36,80.31,323.05z M316.44,284.21l4.15,0.18c0.37-2.29,0.4-4.09,0-7.36
		c-1.62-6.84,2.42-8.84,1.31-14.77c-1.26-4.1,0.43-19.37-3.28-21.48c-2.43,2.92-5.73,2.45-9.67,2.24l0.11,5
		c0.44,15.36,0.38,22.43-0.16,22.84c-0.76,0.53-1.8,9.18-1.48,12.18c0.48,2.07,1.33,6.17,3.44,2.77
		C312.18,284.03,312.34,284.03,316.44,284.21z M112.49,272.73c1.8-3.18,2.24-3.41,4.64-2.06c3.45,1.31,4.07,1.25,6.34,4.71
		c3.97-3.48,1.34-10.6-0.87-13.89c-3.96-5.12,4.97-11.16,1.97-17.36c-1.87-5.57,1.18-13.57-0.44-20.13
		c-1.57-13.22,3.75-20.84,0.22-35.14c-0.87-3.71-1.2-11.48-0.44-11.48c0.87,0,1.58-6.18,1.09-10.01c-0.47-5.15-0.9-22.5-2.08-27.14
		c0.52-9.27-5.06-3.42-10.27-5.24c-1.86-0.88-1.91-0.82-1.58,1.59c0.44,2.59-1.04,6.59-2.35,6.65c-3.46-0.87-2.39,13.05-0.05,12.54
		c1.97,1.06,2.9,4.65,2.46,9.54c-1.5,2.11-1.98,54.85-0.55,55.51c0.93,4.65,0.93,5.18,0.05,9.3c-1.7,5.63,0.87,8.09-0.22,12.89
		c-0.45,6.2-2.64,15-0.71,21.01c3.23,3.27,2.42-8.48,4.81-7.77c2.46,0,3.01,0.59,2.62,2.88c0.55,3.06-8.71,14.2-6.94,16.13
		C110.74,275.85,110.69,275.91,112.49,272.73z M231.97,256.95c0.5-5.12-2.99-7.72-0.65-13.13c1.15-3.12,1.53-9.65,0.82-13.24
		c-0.66-3.12-0.66-3.18,0.82-4.65c3.92-2.11-3.68-11.68-2.19-16.31c-0.12-5.62,2-15.03,0.66-20.01c-1.56-3.15-0.28,5.44-2.3,6.83
		c-1.15,1.77-1.37,2.65-1.09,4.36c1.29,7.97,0.68,12.84-0.76,19.42c0.94,2.01,3.41,6.11,2.24,7.53c0.14,6.78,0.71,18.34-0.87,25.55
		c-1.09,4.47-1.04,5.42,0.33,7.3C231.08,263.9,231.47,259.15,231.97,256.95z M75.61,229.82c0.22-0.29-0.38-1.35-1.31-2.3
		c-2.41-2.02-1.67-6.84-1.04-9.48c0.76-3.11,4-1.69,6.12-0.35c2.98,1.49,2.39,6.77,0.76,8.95c-4.73,8.67,9.71,0.21,4.31-7.71
		c-2.45-6.28-12.88-8.89-13.77-1.24C68.37,222.29,72.44,232.6,75.61,229.82z M76.16,207.33c1.66-1.2,9.38,2.91,7.27-1.53
		c-1.32-2.45-0.47-11.13-3.06-12.66c-1.64-1.77-1.75-2.18-1.47-4.71c0.35-3.01-0.52-5.84-3.55-4.83c-1.75,0.53-1.86,0.71-2.02,3.65
		c0.42,4.09-4.49,4.62-1.2,7.77c1.48,0.82,1.48,3.35,0,3.83c-1.26,0.41-2.73,3.18-2.73,5c0,1.71,3.17,4.89,4.32,4.36L76.16,207.33z
		 M232.52,161.48c1.8-1.88,1.64-3.53-0.6-5.89c-1.53-1.59-2.08-1.88-2.4-1.24c-0.66,1.06-0.05,10.07,0.71,11.54
		C231.14,168.29,230.9,161.98,232.52,161.48z"/>
	<g>
		<path class="st3" d="M153.52,329.18c0-3.26-1.39-4.26-1.15-7.71c0.43-2.94-1.17-4.24-1.58-6.3c-0.63-3.63-4.47-9.99-2.73-14.3
			c0.8-6.21,3.72-9.19,1.91-15.01c-0.71-2.65-0.76-4-0.33-6c0.44-2.24,0.33-3.12-0.76-5.89c-2.6-4.72,1.72-9.36,5.46-5.24
			c1.91,1.88,1.91,1.88,3.28,0.82c2.19-1.33,4.49,0.49,4.1,3.88c1.07,8.05,3.02,5.01,1.26,15.01c-0.22,3.18-0.11,3.77,0.98,4.94
			c3.24,6.02-0.22,9.49,0.38,19.13c0.01,9.94-0.7,8.62-1.53,14.07c0.92,7.02-4.57,4.58-9.29,5V329.18z M307.81,330.29
			c0.53-6.8,0.99-2.05,11.31-5.77c1.09,0,3-2.18,3.77-4.41c0.6-1.71,0.66-1.71,1.42-0.65c2.01,1.64-0.87,8.75-2.24,12.13
			c-3.64,0-10.95,0-14.59,0L307.81,330.29z M76.6,325.29c-1.58-9.44-6.21-9.15-5.3-16.01c0.55-6.06,3.29-14.28,1.37-20.07
			c-1.08-2.53,2.69-12.05,5.19-8.24c1.41,1.66,1.77,0.84,3.55,2.35c2.83,1.81,0.52,6.57,2.9,9.24c2.16,2.36,1.08,10.68,2.24,13.42
			c1.71,3.69-5.2,4.93-3.93,11.18C83.86,318.88,77.64,332.03,76.6,325.29z M346.21,321.17c-2.83-6,5.79-11.45,4.75-15.89
			c-0.62-2.99,3.69-5.41,6.88-5.59c-0.27,2.36,1.07,13.19-2.19,9.54c0-1.35-1.15-0.41-1.48,1.18c-0.27,1.65-1.37,2.88-4.75,5.47
			C347.6,316.16,347.89,322.96,346.21,321.17z M351.73,321.17c-3.81-2.1,3.35-8.74,5.41-9.59c1.07-0.39,0.62,8.28,0.71,10.01
			C356.33,321.55,352.66,321.49,351.73,321.17z M308.68,312.64c0.68-4.44,3.23-7.61,8.2-5.83c1.69,1.01,4.91-0.31,4.92,2
			c0,1.3-0.16,1.35-3.55,1.12c-3.99-0.29-6.61,0.59-7.1,2.3C310.76,313.46,308.68,313.75,308.68,312.64z M270.16,301.63
			c0.89-3.4-2.2-5.07-0.76-8.42c0.55-1.82,0.55-3.18,0-6.83c-1.94-12.17-2.19-19.56,1.04-28.96c-0.04-4.22,2.11,0.98,3.93,0.12
			c0.93-0.24,1.04-0.06,0.76,0.94c-0.62,2.68,3.79,7.3,1.64,10.18c-1.53,7.53-2.76,5.97-2.57,16.42c-0.48,8.01,1.86,7.67-1.26,12.6
			c-2.13,2.19-1.48,4.81-2.57,6.24C270,303.92,269.94,303.1,270.16,301.63z M308.02,287.03c-2.4-3.19-0.74-15.12,0.33-16.78
			c1.3-1.45,0.16-17.98-0.44-18.78c0.49-1.01,0.53-7.02,0.49-9.06c0,0,3.72,0,3.72,0c5.62,1.12,4.84-5.33,8.41-0.41
			c0.98,1.41,1.09,2.59,1.2,9.71c-0.61,10.7,2.92,8.63-0.16,17.95c-1.59,3.58,0.72,11.72-0.44,15.48l-4.32-0.24
			C310.05,283.34,311.41,290.39,308.02,287.03z M348.4,282.56c-1.64-2.71-2.13-24.37-0.66-27.67c1.76-2.35-1.54-8.75-0.27-12.42
			c0.69-1.4,0.48-8.68,1.15-9.77c3.06,1.8-0.27,8.37,2.79,12.13c3.43,7.06,1.97,2.18,5.35,0.82c1.09,0,1.09,0.35,1.09,17.95
			c0,14.24-0.16,17.95-0.71,17.95C354.96,282.15,349.52,285.71,348.4,282.56z M113.8,269.9c0.4-3.9,8.36-14.78,8.69-14.83
			c0.33,0,0.38,0.41,0.16,1.06c-2.73,3.51,3.74,6.96,1.75,8.36c-0.96,0.14-1.7-1.79-2.51-0.47
			C116.83,270.14,116.52,272.09,113.8,269.9z M108.67,263.49c-0.82-2.3-0.49-8.42,0.44-8.42c0.49,0,0.71,0.82,0.71,2.53
			c0,5.24,1.26,6.89,1.86,2.47c0.43-3.52,2.49-3.92,1.69,0.47C113.22,265.18,110.33,266.67,108.67,263.49z M228.42,261.19
			c-2.63-3.62,0.36-8.42,0.27-13.48c0,0,0.55-9.36,0.55-9.36c0.82-5.1-1.2-7.4-0.38-10.77c1.02-1.14-1.42-5.18-2.24-6.89
			c1.46-6.62,2.04-13.72,0.87-19.72c-0.9-4.55,3.08-6,2.51-10.77c0.06-3.54,0.19-4.67,1.86-1.41c2.37,7.6-2.53,18.93,0.33,26.66
			c3.39,7.95,3.5,9.24,0.98,11.42c-0.98,0.82-1.04,1.18-0.44,3.47c0.76,3.06,0.27,11.07-0.87,14.07c-2.45,4.72,1.81,8.04,0.77,12.83
			C231.65,262.84,230.44,263.9,228.42,261.19z"/>
		<path class="st3" d="M274.26,254.19c-1.38-3.96,3.25-12.02-0.27-15.01c-1.42-1.65-3-1.53-3,0.24c0,2.12-1.75,7.53-2.29,6.95
			c-0.55-0.51-1.34-8.97-1.8-9.48c-0.71-1.24-0.33-9.18,0.55-11.42c0.71-1.88,0.76-2.59,0.22-4.18c-0.49-1.47-0.49-2.41,0-3.88
			c2.36-5.66-2.41-12.13-0.77-14.48c2.13-0.88,2.62-7.59,1.15-14.95c-1.1-4.05-0.65-10.21,2.08-11.89c5.59-3-1.75-6.88,0-12.36
			c0.26-6.25,5.32-10.5,4.81-16.66c-1.23-0.95-3.72-2.84-4.97-3.77c0.77,0.99,0.24,23.24-3.33,16.66c0-1.59-3.33-6.71-4.42-6.71
			c-1.26,0-1.37-1.35-0.22-2.35c1.83-3.82,2.61-8.01,4.43-13.18c1.81-7.72,4.24-4.83,2.57-13.42c-1.66-8.2,1.89-12.79,1.42-20.66
			c0.02-4.84,1.48-5.98,0.16-10.12c-0.03,1.65,0.11,4.81-1.2,5.47c-0.93,0.59-1.15,0.59-1.31,0c-2.68-9.89-2.68-9.24-0.76-17.36
			c0.71-3.12,1.69-4.18,1.97-2.18c1.4,7.15,4.03-11.21,8.69-1.24c4.3,5.29-1.15,9.42,0.87,13.24c0.44,0,1.42,0.82,2.24,1.82
			c1.48,1.77,1.53,2.06,1.42,7.77c-0.7,5.93,2.33,70.83,0.38,71.93c-0.87,2.14-0.2,14.09-1.31,16.25c-1.72,4.58,0.4,8.96,4.21,6.89
			c3.52-2.44-0.34,2.69,0,4.06c0,0.94-0.44,1.35-1.75,1.65c-10.64,1.51,0.12,8.09-1.04,22.37c-0.11,2.1,0.09,18.46-1.2,19.9
			c-1.23,2.88-0.07,4.88-0.6,7.77c-0.57,3.6-2.53,0.61-6.17,5L274.26,254.19z M153.14,251.54c0.27-2.3,0.22-2.41-0.93-2.12
			c-2.05,1.63-1.3-7.9-0.55-7.95c0.76-0.88,0.71-1.18-0.55-2.59c-2.68-3.12-1.2-3.71,2.02-0.82c5.41,4.38-2.7,5.13,1.53,5.18
			c2.73,0.06,4.81,2.83,3.39,4.41c-0.57,0.59-0.42,4.63-0.44,5.95c-1.2,0.09-3.61,0.27-4.81,0.35L153.14,251.54z M114.4,251.89
			c-3.66-1.23-3.04-13.4,2.51-12.13C124.95,238.93,122.83,256.56,114.4,251.89z M110.14,239.29c-2.11-3.08,1.36-12.63,0.16-16.54
			c-1.84-9.61-1.72-12.67-1.09-19.31c-0.11-5.3,1.71-2.2,3.22-0.18c0.15-2.62,0.55-7.91,0.98-9.83c0.31-3.92-1.74-4.62-0.98-9.83
			c0.22-4.24,0.33-4.47,1.53-4.47c2.1,0.11,5.62,5.8,4.81,7.95c-0.22,1.47,0,3.36,0.6,5c1.15,3.31,1.44,12.74,1.75,16.95
			c0.65,3.43-1.09,4.52-1.48,7c0,1.53,2.29,4.83,3.5,5c2.73-1.83,2.88,21.92-0.44,17.19c-1.58-2.3-9.4-2-11.36,0.41
			C110.85,239.29,110.3,239.59,110.14,239.29z M153.52,236.41c-4.54-0.28-2.85-10.81-0.93-14.01c-4.61,6.26-5.71-2.16-4.53-6.18
			c1.51-1.78-1.94-6.22-0.33-7.59c3.78-2.16,1.74-20.05,0.55-24.49c-0.93-3.06-0.93-3.41-0.11-3.88c1.26-0.77,1.75-4.36,0.76-5.95
			c-1.14-2.29-1.33-7.73-2.08-10.36c-1.43-2.21,2.53-9.69,2.13-12.07c-1.37-4.84-2-9.27,0.27-14.66c2.83-7.88-4.95-7.89-0.11-20.78
			c0.05-6.82-1.63-29.76,0.93-34.79c1.12-0.97,0.19-4.8-0.49-7.89c3.17,0,9.56,0,12.73,0c-1.11,9.24-0.35,17.97-1.15,25.55
			c0.65,5.73-3.39,5.3-0.11,11.07c1.69,3.59,1.69,3.83,1.15,7.53c-1.71,16.35,0.79,44.21,1.2,60.22c0.83,3.85-0.56,6.89,0.77,11.3
			c0.87,3.77,0.87,3.94-0.22,5.95c-1.75,3.52-1.19,5.92-3.55,0.77c-1.44,3.31-4.85,16.69,0.66,16.54c1.26,0,1.48,0.24,1.53,1.65
			c-0.1,0.91,2.02,11,1.37,11.77c-0.27,0.12-0.38,1.06-0.22,2.18c0.67,3.35-1.32,7.65-1.48,2.77c-0.35-3.1-0.44-11.64-3.11-10.07
			c-0.6,0.59-0.6,0.82,0,1.65C161.96,227.37,162.79,239.38,153.52,236.41z M160.9,176.78c0.64-6.59-0.51-7.39-0.82-2.71
			c0.24,3.15-2.01,6.43-0.93,9.36c0.6,2.06,0.66,2.06,0.98,0.77C160.35,183.43,160.68,180.08,160.9,176.78z M311.96,231.82
			c-5.27-2.89-4.49-5.24-5.79-9.77c-2.47-7.24,1.33-12.82,0.44-20.78c-0.94-7.4,2.03-6.83,2.08-13.89c0-1-0.38-2.47-0.87-3.3
			c-1.29-2.05-0.68-9.48,3.77-8.24c3,0.85,4.68-2.09,7.49-2c0,0,1.91,0,1.91,0c-0.35,4.13,2.17,25.94-3.55,20.01
			c-1.19,3.07-1.84,10-6.39,10.01c-1.47,0-2.02,0.82-1.58,2.65c0.28,2.58,4.17-0.36,5.57-0.76c5.36-3.14,3.73,6.06,0.82,8.12
			c-1.49,0.75-1.57,2.26,0.27,0.65c1.92-1.84,5.73-1.39,3.22,0.29c-1.28,0.95-0.61,4.04-1.75,5.36
			C314.92,222.96,319.51,237.6,311.96,231.82z M73.54,228.64c-0.93-1.12-1.2-3-0.44-3c1.92,1.42,3.96,3.98,6.34,0.53
			c4.77-5.45-3.19-11.65-5.35-8.36c-0.27,0.65-0.55,0.77-0.93,0.35c-1.83-2.27,3.07-4.25,1.64-4.24c-0.86-0.23-5.95,4.15-4.26,0.71
			C83.53,202.98,89.86,235.01,73.54,228.64z M123.2,212.57c-0.14-2.72-0.51-19.61,1.37-23.43c1.53,0,2.35,12.13,1.09,16.13
			c-0.86,2.06-0.01,6.02-0.38,7.77C124.84,214.34,123.53,213.98,123.2,212.57z M351.84,212.04c-0.31-6.63-6.34-11.69-4.21-18.54
			c0.77-2.77,0.71-3.06-0.44-5.53c-2.85-4.65,0.4-15.01,2.46-20.19c-0.16-4.17-4.55-6.01-3.72-11.65
			c-0.68-9.48,7.42-1.52,11.91,0.35c0,14.16,0,42.65,0,56.8c-1.37-0.03-3.62,0.02-4.75,0.35
			C351.95,213.98,351.84,213.81,351.84,212.04z"/>
		<path class="st3" d="M70.53,207.45c-3.04-2.37-1.44-8.06,1.04-9.18c1.42-0.47,1.42-1.82,0-2.65c-1.53-0.88-1.53-4.41,0-5.3
			c0.82-0.47,1.04-1.18,0.98-3.24c-0.16-3.12,0.38-3.83,3.28-4.24c1.91-0.29,2.29-0.12,3.11,1.18c1.49,1.38-0.43,6.36,1.04,7.42
			c2.66,2.55-1.66,1.07-0.22,2.71c0.77,1,0.22,8.95-0.71,10.18c-0.71,0.94-0.05,1.65,2.02,2.24c1.37,0.35,1.48,0.29,0.98-0.71
			c-0.35-0.17-1.66-12.69-0.44-12.01c1.79-0.26,0.97,9.19,2.29,11.24c2,3.68-1.28,4.06-4.81,2.94
			C76.25,207.03,72.58,210.99,70.53,207.45z M73.1,176.37c-1.86-0.29-3.28-1.94-1.69-1.94c0.98,0,1.09-0.29,0.82-2.94
			c-1.09-3.72,3.88-6.97,5.03-9.95c0.47-3.13,5.88-0.68,5.68-2.82c-3.65-3.53-5.18,3.94-4.81-10.18c0.9-12-3.87-14.23-6.01-23.9
			c0.43-2.53,1.74-2.62,3.01-6.12c2.36-6.63,4.44-1.8,6.56,1.41c0.27-3.23,0.76-10.15,0.98-13.42c0.65-4.75,1.34-1.93,3.39,0.82
			c4.81,5.04,1.76,10.5,0,15.89c-0.87,2.53-1.58,8.3-1.47,12.07c0.01,2.58,0.21,17.16,0.66,19.78c0.33,2.41,0.16,3.06-1.09,5
			c-2.94,4.59-4.51-0.77-6.5,6.71c-1.76,4.37-1.06,4.79,0.49,3.65c0-0.65,2.51-1.88,3.82-1.88c1.2,0,1.86,1.18,2.4,4
			C86.86,178.6,75.87,176.39,73.1,176.37z M229.79,166.66c-0.82-1.47-1.53-11.07-0.93-13.42c0.38-1.41,0.44-1.35,3.28,1.59
			c3.22,3.36,3.33,4.36,0.82,7.3C231.05,163.07,232.4,170.73,229.79,166.66z M107.68,156c-1.89,0.93-3.24-14.31,0.44-13.36
			c1.35-1.2,0.75,11.86,0.87,14.13L107.68,156z M113.53,155.77c-3.29-3.15-2.91-14.9,2.46-14.77c3.95,0.04,5.5,2.69,5.3,7.83
			c0,4.18-0.11,4.65-1.58,6.24C117.79,157.06,114.84,157.42,113.53,155.77z M353.48,148.23c-0.71-1.04-4.01-0.9-5.46-0.88
			c0.05-1.84-0.19-9.64,0.44-10.01c0.49,0-0.11-11.54-0.71-13.42c-0.27-0.94,0-1.82,1.09-3.41c2.35-4.94,5.23-0.18,8.03,0.35
			c0.93,0,0.98,1,0.98,14.13v14.13C356.6,149.16,354.19,149.18,353.48,148.23z M121.5,141.11c-3.6-2.42-14.04-0.06-10.6-7.59
			c0.27-0.18,1.09,0.06,1.8,0.59c0.4,1.39,9.11-0.46,9.89,0.29c0.71,0.77,1.15,7.65,0.55,7.59
			C122.87,141.99,122.16,141.58,121.5,141.11z M306.22,125.87c-1.32-3.92-0.41-9.7,0.6-12.66c0.82,0,3.06,2.18,3.99,3.89
			c2.68,3.76-0.64,7.3-1.91,11.01C307.25,132.16,307.41,129.74,306.22,125.87z M319.06,108.21c-0.33-3.7,2.52-3.7,2.19,0
			C321.58,111.91,318.73,111.91,319.06,108.21z M320.32,99.85c-7.31-24.89-7.13,13.94-13.39-26.08c5.76,0.12,10.84-1.31,12.13,4.71
			c0.9,3.14,4.71,6.36,3.61,10.6C322.04,91.03,322.63,100.73,320.32,99.85z M119.48,92.14c-0.82-0.88-1.48-2.18-1.48-2.83
			c0.59-1.33-5.28-3.68-5.9-3.77c-0.66,0.06-1.37,5.65-2.13,5.77c-0.76,0.24-0.87-1.18-0.93-12.07l-0.05-5.47
			c3.85,0,11.61,0,15.46,0c0.21,3.3,2.15,7.16,0.16,10.3C122.65,86.87,124.05,97.59,119.48,92.14z M74.85,90.08
			c-0.96-1.2-5.7-1.69-5.79-3.65c-0.92-2.9,1.33-7.16,2.51-9.54c1.19-3.98,5.05-3.02,9.01-2.83c0.19,3.05,0.76,4.82-1.58,7.71
			C75.94,83.64,78.34,93.54,74.85,90.08z"/>
	</g>
	<g>
		<path class="st4" d="M308.13,326.06c-0.13-1.44,9.91-1.23,10.82-1.83c1.88-0.7,2.38,0.67,0.82,0.88c-0.55,0-1.97,0.41-3.17,0.88
			C313.65,327.12,308.13,327.17,308.13,326.06z M114.35,252.71c-1.56-0.7-2.13-3,0.66-1.41c2.46,1.12,2.62,1.06,4.59-0.71
			c3.37-2.38,1.65-10.92-2.68-10.24c-1.64,0-2.35,0.35-3.22,1.65c-2.12,3.48-1.79-3.6,3.66-2.82
			C125.16,238.25,124.08,256.97,114.35,252.71z M351.24,246.42c-1.86-3.59-2.68-7.95-1.64-8.65c0.38-0.29,0.6,0.35,0.6,1.94
			c-0.2,2.35,2.04,5.97,3.44,8.24c2.41-4.47,5.86-2.52,3.39-1.71C353.91,248.24,354.41,252.82,351.24,246.42z M269.02,245.53
			c0.41-1.63,1.39-7.41,2.13-8.18c3.01-1.89,6.18,6.23,4.48,7.12c-1.11-0.33-1.07-5.26-2.62-5.24c-0.93-0.41-1.26-0.29-1.37,0.47
			C271.25,242.46,268.73,249.69,269.02,245.53z M110.36,238.94c0.22-3.5,12.02-3.82,13-1.12c0.93,1.41-0.05,1.65-1.8,0.41
			C115.93,235.15,109.85,241.42,110.36,238.94z M120.36,219.57c-3.03-4.11,0.75-6.28,0.16-10.54c-0.16-1.41-0.38-5.06-0.49-8.12
			c0.23-5.65-3.35-12.05-1.42-15.66c2.03-0.1,4.16,5.27,4.86,0.47c2.49-2.73,0.02,13.64,0.27,17.66c-0.22,7.48-0.11,8.83,0.66,9.65
			c0.76,0.82,0.82,1.29,0.27,3.53C123.94,219.89,124.12,224.25,120.36,219.57z M158.11,211.8c-2.05-4.47,1.28-16,2.51-20.01
			c0.85,0.93,0.35,5,1.42,6.06c1.45,2.47-0.18,6.3,0.77,9.48C164.47,213.45,160.83,214.91,158.11,211.8z M110.52,202.09
			c-1.4-0.04-2.21-14.65,0.22-14.01c1.75-0.82,2.4-0.29,3.33,2.71c1.06,3.02-1.29,6.45-0.98,9.89
			C113.09,204.33,112.38,204.68,110.52,202.09z M159.31,187.67c-0.36-3.35-1.99-5.6-0.66-9.06c1-2.06,0.55-6.43,1.42-8.01
			c2.92-10.99,1.08,15.42-0.38,19.42L159.31,187.67z M123.47,176.02c0.11-3.06-2.21-6.12-2.19-9.12c0-1.24-0.38-2.77-0.82-3.41
			c-1.2-1.71-0.98-3.41,0.6-5c1.68-1.5,4.86-9.86,3.99-2.3c-0.91,6.1,1.77,14.71,0.49,18.36
			C124.73,178.72,123.47,179.67,123.47,176.02z M312.01,176.72c-0.71-0.29-1.75-0.41-2.24-0.24c-2.36-0.4-1.26-13-1.91-17.36
			c-0.34-16.96-3.56-26.55,3.72-38.85c-2.67-7.17-5.41-2.59-4.64-13.6c0.66-4.67-1.49-23.31,1.47-26.14
			c0.6,2.15,2.72,10.29,3.61,12.3c0.72-0.83,2.63-3.21,3.44-3.18c1.58,0,4.7,5.24,4.7,7.95c0,0.82,0.27,1.47,0.55,1.47
			c0.68-0.18,0.88,7.93-0.27,7.06c-0.55,0-0.82,0.65-0.82,2.06c0.31,4.62,2.31-1.91,1.42,11.01c-0.48,19.64-1.25,35.92,0.38,55.62
			c-3.02-1.24-5.8,1.15-7.92,2.47C313.38,177.31,312.72,177.02,312.01,176.72z M268.52,174.6c-2.38-9.87,2.35-20.36,0.88-29.08
			c-1.78-6.34,3.88-0.52,6.06,0.94c0.51,7.6-3.89,10.57-4.75,17.19c-1.35,4.24,2.7,6.71,2.19,10.12
			C272.41,176.95,268.99,178.37,268.52,174.6z M72.22,173.84c-2.48-4.85,1.62-7.56,4.1-11.6c1.96-3.9,3.32-3.14,6.45-3.3
			c-0.96-0.11-4.1-0.3-4.1-1.24c1.07-1.76,7.66-0.71,4.21,2.71c-0.33,0.18-1.37,0.24-2.29,0.06c-2.75-1-4.21,5.21-6.23,6.53
			c-1.8,1.88-2.29,4.77-1.04,6.12C74.3,174.05,72.99,175.45,72.22,173.84z M70.97,156.71c5.05-3.01-7.63-19.58,0.87-17.54
			c0,0-1.2-0.59-1.2-0.59c-2.21,1.44-0.31-22.57-0.11-23.6c1.03-5.26-1.22-21.98,0.05-27.49c1.47,0.39,4.02,1.18,4.97,2.06
			c1.83,2.07-0.13-5.98,2.9-8.42c3.33-2.95,0.14-7.51,2.68-7.36c0.98,0,1.15,0.24,0.98,1.35c-0.16,0.77,0.38,3.06,1.2,5.18
			c5.47,18.45-1.52,20.03-0.82,41.97c-0.1,0.5-4.67-7.2-4.86-6.71c-0.7,0.29-3.95,7.77-4.53,8.3c-1.25,0.96,2.68,9.4,3.55,10.36
			c1.58,1.94,1.53,4.41-0.11,5.18c-1.31,0.65-1.31,0.71-1.2,8.77c0.23,10.56-0.32,9.68-5.68,9.71L70.97,156.71z M352.22,154.24
			c-3.55-2.12-4.32-2.35-4.75-1.59c-0.76,1.29-0.71-1.65,0.05-4.06c-0.06-2.63,5.46-2.08,6.5-0.94c0.67,0.92,2.68,0.94,3.82,0.88
			c-0.06,1.45,0.27,8.48-0.66,8.24C356.81,156.71,354.57,155.59,352.22,154.24z"/>
		<path class="st4" d="M268.36,131.05c-2.28-15.85-0.47-29.85,1.75-37.85c0.97-5.51-2.26-14.26-1.86-19.42c3.58,0,10.79,0,14.37,0
			l-0.44,2.83c-0.49,3.41-0.49,3,0,11.48c0.49,7.48,0.11,8.36-2.02,5.36c-0.66-0.88-1.42-1.35-1.97-1.12
			c-1.6,0.42,0.37-6.98,0.6-7.83c1.5-1.41-3.25-11.24-4.81-8.01c-2.51,4.59-3.94,5.07-3,12.83c-0.02,5.35,1.79,6.46,0.82,9.42
			c-1.02,2.33-1.2,14.84-2.24,17.42c-0.82,2.71-0.82,3.3,0,7.77C270.77,127.99,269.8,140.93,268.36,131.05z"/>
	</g>
	<path class="st5" d="M150.08,331.18c-0.16-0.29-0.44-1.77-0.66-3.36c-0.38-3.12,0.05-3.88,2.29-3.88c1.58,0,2.35,1.65,2.35,4.94
		c0,2.71,0,2.71-1.86,2.71C151.17,331.59,150.19,331.41,150.08,331.18z M307.7,322.94c-0.8-2.07-0.24-10.41,1.75-10.18
		c0.44,0,1.15-0.65,1.58-1.41c-0.15-1.71,10.92-2.93,10.87-1c1.48,2.06,2.35,7.3,1.64,9.95c-0.05,5.47-8.73,5.07-15.19,5.47
		L307.7,322.94z M352.93,325.35c-5.96-1.58-7.73-6.23-4.04-10.07c3.28-2.47,4.59-3.88,4.59-4.89c-0.02-0.9,1.66-4.02,2.46-2.12
		c0.38,0.53,0.93,0.94,1.31,0.94c0.75-0.1,0.74,2.94,0.16,2.94c-2.96,2.08-10.93,9.39-1.58,8.83c2.02,0,2.02,0,2.02,2.35
		C358.56,327,354.6,325.4,352.93,325.35z M109.65,275.85c-1.84-2.32,2.65-7.12,3.72-9.59c1.36-2.81,1.06-0.65,2.13,0.12
		c0.38,0.24,0.22,0.82-0.44,1.59c-0.55,0.65-0.82,1.41-0.66,1.77C114.83,270.57,110.77,278.26,109.65,275.85z M121.4,273.9
		c-2.81-3.54-7.81-0.87-2.84-6.89c2.68-3.63,5.07-7.58,7.32,0.71C127.6,271.74,124.55,278.34,121.4,273.9z M109.81,262.37
		c-0.71-0.97-0.23-6-1.04-6.71c-0.93,0-1.15-1.94-0.33-2.94c0.44-0.53,0.82-2.06,0.82-3.41c0.3-5.28,1.96-0.63,1.64,2
		c-0.08,3.41,1.09,2.62,1.09,0.18c0.12-4.16,2.18,1.28,4.37,1c3.05,0.62,5.79-2.77,5.46-6.06c-0.18-3.12-0.83-6.96-4.53-6.65
		c-2.51,0-4.21,1.24-4.21,3.12c0,0.53-0.38,1-0.82,1c-1.11,0.09-0.49-1.33-1.69-0.77c-1.65,0.93,0.2-4.19,0.44-4.36
		c1.48-2,8.85-2.59,11.42-0.94c2.19,1.41,3.66,6.06,1.86,6.06c-1.77,1.27,0.13,7.83-3.28,9.54c-0.71,0.59-1.37,1.94-1.58,3
		c-0.66,3.77-3.44,6.36-2.95,2.77c0.22-1.47,0.05-1.82-0.98-2.12C111.88,254.98,112.32,267.28,109.81,262.37z M154.01,258.07
		c-10.2-0.41-0.07-16.1-0.22-6.89c-0.38,2.06-0.38,2.12,1.31,2.12c2.02,0,2.68-1.18,1.8-3.18c-1.27-2.03,2.08-3.4,0.11-5.12
		c-0.7-1.38-7.31-1.05-3.5-3.18c0.6-0.18,1.09-0.59,1.09-0.88c0-0.71-3.55-3.77-4.1-3.59c-2.89-2.62-3.67-12.11,1.04-14.95
		c1.88-2.1,3.99-0.94,2.35,0.35c-0.49,0.35-1.31,1.35-1.75,2.3c-1.04,2.12-1.09,9.01-0.11,9.89c0.77,0.74,4.73,1.25,6.28,1.41
		c1.53-3.16,2.82-4.62,1.8-8.65c-0.38-1.94-1.09-4-1.53-4.53c-1.48-1.82,0.55-4.36,2.24-2.88c1.37,1.24,2.13,8.83,2.19,21.48
		c0.05,14.07-0.27,15.89-2.68,16.07C157.85,257.92,156.84,258.64,154.01,258.07z M271.69,256.78c-2.65-2.67-3.44-8.98-1.86-12.83
		c1.66-3.08-0.23-7.26,3.55-5.36c1.78,0.17,1.75,4.61,2.68,5.36c0.33,0.24,0.05,1.88-0.66,4.18c-0.93,3-1.04,4.18-0.6,5.42
		C276.28,257.83,274.53,259.66,271.69,256.78z M351.35,245.59c-2.34-2.49-1.3-9.68-2.24-12.3c-0.27-0.47-0.55-0.59-0.55-0.29
		c-0.05,0.77-1.58-2.12-1.64-3c0.99-3.82,6.09,4.01,10.93,0.82c-0.09,2.37,0.38,15.74-0.76,14.83
		C353.94,246.99,354.44,251.24,351.35,245.59z M72.88,230.52c-6.46-6.36-4.02-19.39,6.06-17.25c-1.1,0.57-4.7,2.29-5.14,2.71
		c-0.48,1.29-1.08,14.9,1.97,13.18C77.97,230.12,73.88,231.51,72.88,230.52z M78.67,230.29c3.86-5.6,6.18-9.13,1.42-15.42
		c-2.42-3.04,6.2,0.33,6.23,8.01C86.91,226.57,81.44,233.13,78.67,230.29z M314.14,215.92c-0.6-0.77-0.38-1.24,1.26-2.83
		c2.2-1.56,4.26-9.13,0-6.71c-2.18,0.99-7.5,4.23-6.61-1.06c0.16-1.41,0.49-1.77,1.91-2.12c6.94-0.87,3.94-12.72,7.43-9.65
		c1.66,1.35,2,0.58,2.02,3.71c0.4,4.02,3.18,16.87-1.04,16.78C317.92,213.38,314.84,217.72,314.14,215.92z M79.44,206.8
		c-3.72-1.74,0.41-3.7,0-7.59c0.61-4.33-0.17-4.28-2.02-6.53c1.39-0.28,5.71,0.63,4.7,1.71c-0.55,0.35-0.05,9.3,0.66,11.71
		C83.71,208.28,80.38,207.11,79.44,206.8z M70.26,174.49c-0.72-2.83-1.91-5.76,1.58-8.53c2.73-2.88,2.95-4.47,0.66-4.47
		c-1.58,0-2.57-1.06-2.57-2.77c-0.1-2.21,2.88-0.92,4.1-2.3c1.92-1.69,1.56,0.54,0.71,1.12c-0.55,0.18-0.49,0.53,0.22,1.29
		c2.78,3.06,3.45-4.2,4.26-1.41c0.16,1.02,3.39-0.33,3.77,0.77c0.93,1.18-0.33,2.06-2.4,1.71c-1.69-0.29-1.91-0.12-3.72,2.83
		c-1.78,3.45-6.65,6.97-4.21,10.24C74.51,174.44,71.4,175.92,70.26,174.49z M120.74,167.13c0-1.53-0.33-3-0.82-3.53
		c-1.42-1.53-0.6-5.06,1.2-5.06c1.79,0.07-2.15,2.17-0.38,3.71C122.74,164.94,121.55,174.23,120.74,167.13z"/>
	<path class="st6" d="M114.89,267.02c-2.66-1.13,3.37-7.91,3.99-11.07c1.42-4.44,5.06-4.9,3.93-11.3c-0.22-2.65-0.16-3.12,0.38-2.3
		c2.64,1.49,3.15,4.08,1.8,9.24c-1.87,3.97-7.7,11.76-9.34,15.77C115.6,267.37,115.22,267.19,114.89,267.02z M110.96,257.72
		c-0.3-7.88-2.56-9.83-0.87-14.83c1.09-2.18,1.91-2.53,1.91-0.77c0,0.65,0.22,1.18,0.49,1.18c0.66,0,0.33,9.77-0.38,10.71
		C111.66,253.91,111.16,258.8,110.96,257.72z M109.65,188.73c-1.06-4.87,0.05-19.4,0.82-24.31c0.16-3.65-0.06-4.89-1.15-7.12
		c-1.84-2.57-1.19-13.38,0.22-16.13c0.2-4.27,11.3-2.42,13.5,0.41c1.42,1.65,1.53,2.12,1.53,7c1.25,10.54-6.58,10.28-4.15,14.42
		c1.1,0.46,0.61,5.64,1.37,6.12c2.42,2.58,2.05,4.49,2.24,10.77c0.22,9.54-0.36,12.34-7.87,2.06c-4.57-7.08-1.92,4.97-4.26,6
		C110.63,189.2,110.2,189.38,109.65,188.73z M119.16,154.47c2.25-1.65,2.27-9.71-0.05-11.3
		C110.54,134.51,109.05,162.64,119.16,154.47z M74.96,159.95c-1.2-0.88-1.69-3.18-0.66-3.18c0.71,0,0.71-14.07,0.05-15.25
		c-0.19-1.28-3.59,0.48-3.22-0.76c0.72-1.25,4.16-1.51,5.46-2c3.47-0.7,1.5,4.48,2.19,10.65C79.22,158.66,78.5,162.27,74.96,159.95z
		"/>
</g>
<rect x="42" y="347.35" class="st7" width="316" height="172"/>
<rect x="42" y="44.64" class="st8" width="316" height="473.43"/>
<path d="M25,354.52L25,354.52c0-13.25,10.75-24,24-24h302c13.25,0,24,10.75,24,24v0c0,13.25-10.75,24-24,24H49
	C35.75,378.52,25,367.78,25,354.52z"/>
<path class="st0" d="M31.18,355.52v-2c0-10.22,8.28-18.5,18.5-18.5h300.65c10.22,0,18.5,8.28,18.5,18.5v2
	c0,10.22-8.28,18.5-18.5,18.5H49.68C39.46,374.02,31.18,365.74,31.18,355.52z"/>
<path class="st9" d="M35.81,354.52L35.81,354.52c0-8.84,7.16-16,16-16h296.38c8.84,0,16,7.16,16,16v0c0,8.84-7.16,16-16,16H51.81
	C42.97,370.52,35.81,363.36,35.81,354.52z"/>
<path d="M25,57.71L25,57.71c0-13.25,10.75-24,24-24h302c13.25,0,24,10.75,24,24v0c0,13.25-10.75,24-24,24H49
	C35.75,81.71,25,70.96,25,57.71z"/>
<path class="st0" d="M31.18,58.71v-2c0-10.22,8.28-18.5,18.5-18.5h300.65c10.22,0,18.5,8.28,18.5,18.5v2
	c0,10.22-8.28,18.5-18.5,18.5H49.68C39.46,77.21,31.18,68.92,31.18,58.71z"/>
<path class="st9" d="M35.81,57.71L35.81,57.71c0-8.84,7.16-16,16-16h296.38c8.84,0,16,7.16,16,16v0c0,8.84-7.16,16-16,16H51.81
	C42.97,73.71,35.81,66.54,35.81,57.71z"/>
<rect x="67.64" y="39.26" class="st10" width="326" height="42.44"/>
<text transform="matrix(1.0294 0 0 1 81.8568 70.5599)" class="st11 st12">Cubemoto Card</text>
<g>
	<rect x="48.81" y="379.48" class="st10" width="374" height="86.73"/>
	<text transform="matrix(1.3 0 0 1 76.25 398.1504)"><tspan x="0" y="0" class="st11 st13">The creator of abstract </tspan><tspan x="-10.11" y="20.47" class="st11 st13">art on Bitcoin. One of the </tspan><tspan x="0.34" y="40.94" class="st11 st13">most rare cubed Pepes</tspan><tspan x="122.74" y="61.41" class="st11 st13"> </tspan></text>
</g>
<text transform="matrix(1 0 0 1 150.5915 481.0653)"><tspan x="0" y="0" class="st11 st14">Rareness Score</tspan><tspan x="53.06" y="19.7" class="st11 st14">96</tspan></text>
<polygon class="st15" points="121.56,466.21 123.92,473.85 131.56,473.85 125.38,478.57 127.74,486.21 121.56,481.49 115.38,486.21 
	117.74,478.57 111.56,473.85 119.2,473.85 "/>
<polygon class="st15" points="275.56,466.21 277.92,473.85 285.56,473.85 279.38,478.57 281.74,486.21 275.56,481.49 269.38,486.21 
	271.74,478.57 265.56,473.85 273.2,473.85 "/>
<g>
	<text transform="matrix(1.0294 0 0 1 76.9901 359.5528)" class="st11 st16">= 24   Atk = 3  Spd = 1  Ele = art</text>
	<path class="st17" d="M57.95,362.01l0.19-13.69c0,0-4.64-4.85-8.3-1.55C45.14,350.99,57.95,362.01,57.95,362.01z"/>
	<polygon class="st17" points="57.84,361.78 57.34,348.31 58.7,348.31 58.7,360.99 	"/>
	<path class="st17" d="M57.95,362.01l0.11-13.69c0,0,4.64-4.85,8.3-1.55C71.07,350.99,57.95,362.01,57.95,362.01z"/>
</g>
<g>
	<rect x="135.35" y="267.04" class="st18" width="116.05" height="63.48"/>
	<path class="st19" d="M154.41,242.4l-19.06,48.99c0,0,59.39,33.83,70.58,20.53C219.95,295.27,154.41,242.4,154.41,242.4z"/>
	<polygon class="st20" points="157.36,288.6 157.36,256.81 274.83,218.2 257.8,279.89 	"/>
	<path class="st21" d="M150.45,140.13l68.18-33.47l58.32,22.01l-8.89,63.36l14.97,1.03l12.17,9.1l-2.31,18.92l-13.64,1.09
		l-11.35,20.96l-4.38-17.68c0,0-15.65,14.9-21.61,19.1c-4.85,3.42-20.98,11.64-20.98,11.64s-7.9,12.79-12.59,14.73
		c-9.15,3.8-31.46,2.57-40.28-1.82c-4.81-2.4-15.1-14.37-15.1-14.37l-9.02-19.46l-3.36-60.21L150.45,140.13z"/>
	<polygon class="st22" points="145.12,197.74 151.15,158.11 139.09,158.11 	"/>
	<polygon class="st23" points="139.09,158.11 133.07,197.74 145.12,197.74 	"/>
	<polygon class="st24" points="134.23,190.11 131.56,152.83 139.6,138.68 149.39,158.11 	"/>
	<polygon class="st25" points="149.39,162.06 139.6,138.68 148.13,107.19 169.23,131.14 	"/>
	<polygon class="st26" points="148.13,107.19 169.23,131.61 223.15,117.24 	"/>
	<polygon class="st27" points="148.13,107.19 185.64,112.22 202.06,91.55 	"/>
	<polygon class="st28" points="245.38,128.98 244.62,100.25 305.04,134.48 262.12,148.24 	"/>
	<polygon class="st29" points="262.12,148.24 293.65,138.13 314.56,165.84 271.99,194.19 	"/>
	<polygon class="st30" points="185.64,112.22 202.06,91.55 251.4,97.31 245.38,128.98 	"/>
	<polygon class="st31" points="250.26,103.34 262.12,148.24 302.27,118.21 	"/>
	<polygon class="st32" points="314.56,165.84 271.99,194.19 294.63,206.81 	"/>
	<polygon class="st33" points="263.52,225.44 254,177.93 262.12,148.24 273.08,194.8 	"/>
	<polygon class="st34" points="270.48,224.18 278.14,203.39 287.31,211.55 278.9,214.71 	"/>
	<polygon class="st31" points="169.23,146 167.04,139.07 208.78,145.07 198.26,155.06 	"/>
	<g>
		<g>
			<path class="st35" d="M154.69,152.75c0,0-16.57-10.69-7.64-11.71c14.16-1.61,61.1,14.75,61.1,14.75l-0.62,11.32L154.69,152.75z"
				/>
			<path class="st35" d="M156.89,185.12c0,0-14.91,11.17-5.82,11.2c14.42,0.04,58.84-19.17,58.84-19.17l-2.38-10.04L156.89,185.12z"
				/>
		</g>
		<polygon class="st36" points="207.53,167.11 155.53,152.97 155.53,186.19 		"/>
		<ellipse transform="matrix(1 -8.863909e-03 8.863909e-03 1 -1.4923 1.3852)" cx="155.53" cy="169.05" rx="7.21" ry="14.28"/>
		
			<ellipse transform="matrix(0.9998 -0.0207 0.0207 0.9998 -3.4798 3.1781)" class="st36" cx="151.7" cy="169.59" rx="1.93" ry="7.87"/>
	</g>
	<polygon class="st37" points="194.72,192.29 201.33,164.46 207.4,165.63 200.8,193.46 	"/>
	<g>
		<g>
			<path class="st34" d="M187.2,217.38l19.78-61.99l10.02,3.03c0,0,19.24,47.06,3.31,56.29C215.87,217.27,187.2,217.38,187.2,217.38
				z"/>
			<polygon class="st37" points="206.84,155.81 164.26,203.84 187.2,217.38 			"/>
		</g>
		<path d="M201.62,212.12c0,0,12.92,3.24,17.23,0.47c2.73-1.76,6.84-8.69,3.46-9.68C216.99,201.34,201.62,212.12,201.62,212.12z"/>
		<ellipse transform="matrix(0.5224 -0.8527 0.8527 0.5224 -90.6368 250.5765)" cx="178.36" cy="206.2" rx="3.42" ry="9.98"/>
	</g>
	<path class="st31" d="M221.8,165.67c-3.9-12.08-9.38-31.19-1-36.12c8.45-4.97,21.19,7.64,34.17,19.37
		c3.92,3.54-22.15,1.13-22.15,1.13S223.23,170.12,221.8,165.67z"/>
	<path class="st35" d="M223.96,179.38c-4.39-9.86-0.81-47.3-0.81-47.3s37.33,18.94,42.05,29.25c4.34,9.49-1.11,39.13-1.11,39.13
		S227.99,188.44,223.96,179.38z"/>
	<path class="st38" d="M226.45,177.8c-4.21-9.63-1.53-42.74-1.53-42.74s32.92,17.98,37.2,26.33c5.41,10.56,0.47,36.18,0.47,36.18
		S231.05,188.32,226.45,177.8z"/>
	<ellipse class="st39" cx="244.62" cy="169.49" rx="14.12" ry="12.7"/>
	<polygon class="st19" points="154.41,288.6 251.4,308.78 258.74,275.95 	"/>
	<rect x="137.12" y="149.74" class="st40" width="36.7" height="40.37"/>
	<ellipse class="st40" cx="244.37" cy="169.93" rx="25.98" ry="23.36"/>
	<rect x="173.82" y="162.21" class="st41" width="45.6" height="2.03"/>
	<g>
		<g>
			<path class="st42" d="M151.15,234.62l9.7-7.13c0,0,5.17-4.1,7.57-4.12c2.79-0.02,8.94,4.63,8.94,4.63l6.95,6.18l9.06-3.78
				l6.58-2.49c0,0,7.49-3.33,10.18-2.92c2.79,0.43,7.7,5.84,7.7,5.84l5.26,5.01l5.4,4.84c0,0-10.77,6.2-14.68,7.57
				c-2.66,0.94-8.41,2.35-11.38,2.49c-3.55,0.17-10.89-0.14-14.16-1.12c-1.81-0.54-6.33-3.26-6.33-3.26s-8.05,2.45-10.93,2.49
				c-2.58,0.03-7.77-1-9.93-1.97c-1.97-0.88-5.57-3.13-6.71-4.55C152.98,240.58,151.15,234.62,151.15,234.62z"/>
		</g>
		<polygon points="152.01,234.84 168.63,236.14 184.39,238.86 207.02,239.33 227.6,240.82 206.79,239.85 184.31,239.48 
			168.58,236.69 		"/>
	</g>
	<polygon class="st35" points="219.43,252.34 231.64,241.96 230.51,215.04 232.72,242.4 	"/>
	<polygon class="st35" points="148.97,234.76 155.47,208.63 149.94,235.04 150.58,241.87 	"/>
	<polygon class="st35" points="192.62,134.63 212.72,137.51 192.72,136.01 186.48,138.24 	"/>
	<polygon class="st35" points="204.51,129.37 180.55,132.77 204.41,131.08 211.89,133.89 	"/>
</g>
<text transform="matrix(1.3 0 0 1 133.6451 459.562)" class="st11 st13">in existence.</text>
</svg>
